# xmcd CD database file
#
# Track frame offsets:
#	150
#	14246
#	25842
#	39696
#	52547
#	63659
#	78082
#	95507
#	106529
#	128138
#	146987
#	161110
#	176328
#	189769
#	204239
#	225917
#	257581
#	288599
#
# Disc length: 4225 seconds
#
# Revision: 0
# Processed by: cddbd v1.5.2PL0 Copyright (c) Steve Scherf et al.
# Submitted via: CDex 1.51
#
DISCID=e8107f12
DTITLE=Lester Young - JAZZ BASICS
DYEAR=1900
DGENRE=Jazz
TTITLE0=Oh, Lady Be Good
TTITLE1=Roseland Shuffle
TTITLE2=I'll Never Be The Same
TTITLE3=When You're Smiling
TTITLE4=Clap Hands, Here Comes Charlie
TTITLE5=Lester Leaps In
TTITLE6=Good Morning Blues
TTITLE7=Louisiana
TTITLE8=I Can't Get Started
TTITLE9=I Got Rhythm
TTITLE10=Afternoon Of A Basie-ite
TTITLE11=Blue Lester
TTITLE12=D.B. Blues
TTITLE13=These Foolish Things
TTITLE14=The Man I Love
TTITLE15=Indiana
TTITLE16=Gigantic Blues
TTITLE17=Pres Returns
EXTD=
EXTT0=
EXTT1=
EXTT2=
EXTT3=
EXTT4=
EXTT5=
EXTT6=
EXTT7=
EXTT8=
EXTT9=
EXTT10=
EXTT11=
EXTT12=
EXTT13=
EXTT14=
EXTT15=
EXTT16=
EXTT17=
PLAYORDER=
